<svg xmlns="http://www.w3.org/2000/svg" version="1.1" xmlns:xlink="http://www.w3.org/1999/xlink" width="512" height="512" x="0" y="0" viewBox="0 0 512 512" style="enable-background:new 0 0 512 512" xml:space="preserve" class=""><g><path d="M479.774 366.875C493.409 336.371 501 302.573 501 267c0-135.31-109.69-245-245-245S11 131.69 11 267c0 35.573 7.591 69.371 21.226 99.875h447.548z" style="" fill="#6393e4" data-original="#6393e4" class=""></path><path d="M174.15 100.591h164.351v358.021H174.15z" style="" fill="#6393e4" data-original="#6393e4" class=""></path><path d="M174.15 100.591h52.433v358.021H174.15z" style="" fill="#566cc3" data-original="#566cc3" class=""></path><path d="M138.858 482.228C173.658 501.209 213.568 512 256 512s82.342-10.791 117.142-29.772H138.858z" style="" fill="#474979" data-original="#474979" class=""></path><path d="M256.256 482.228H138.857C173.658 501.209 213.568 512 256 512c.331 0 .66-.007.99-.008-13.608-4.455-13.563-24.713-.734-29.764z" style="" fill="#383c6b" data-original="#383c6b" class=""></path><path d="M330.267 109.782v348.83h78.413c31.439-25.085 56.566-57.744 72.619-95.216V110.433l-75.842-75.842-75.19 75.191z" style="" fill="#ff738d" data-original="#ff738d"></path><path d="M31.352 109.782v255.093c16.077 36.851 40.945 68.983 71.968 93.737h79.064V110.433l-75.842-75.842-75.19 75.191z" style="" fill="#ffcb37" data-original="#ffcb37"></path><path d="M31.352 109.782v255.093c16.077 36.851 40.945 68.983 71.968 93.737h79.064V110.433l-75.842-75.842-75.19 75.191z" style="" fill="#ffcb37" data-original="#ffcb37"></path><path d="M77.126 125.365a33.07 33.07 0 0 1 9.688-23.388l43.557-43.557-23.828-23.828-75.19 75.191v255.094c11.25 25.787 26.818 49.251 45.774 69.505V125.365z" style="" fill="#f6a221" data-original="#f6a221"></path><path d="M376.04 125.365a33.074 33.074 0 0 1 9.688-23.388l43.557-43.557-23.828-23.828-75.19 75.191v348.83h45.773V125.365z" style="" fill="#ff3c63" data-original="#ff3c63" class=""></path><path d="M237.709 230.726h-22.252a4 4 0 0 0-3.999 3.999v19.222h30.249v-19.222a3.998 3.998 0 0 0-3.998-3.999z" style="" fill="#00ff1f" data-original="#aadaf2" class="" opacity="1"></path><path d="M211.459 275.463a4 4 0 0 0 3.999 3.999h22.252a4 4 0 0 0 3.999-3.999v-21.516H211.46v21.516z" style="" fill="#3bff00" data-original="#e8f8fc" class="" opacity="1"></path><path d="M237.709 155.545h-22.252a4 4 0 0 0-3.999 3.999v19.222h30.249v-19.222a3.997 3.997 0 0 0-3.998-3.999z" style="" fill="#00ff1f" data-original="#aadaf2" class="" opacity="1"></path><path d="M211.459 200.282a4 4 0 0 0 3.999 3.999h22.252a4 4 0 0 0 3.999-3.999v-21.516H211.46v21.516z" style="" fill="#3bff00" data-original="#e8f8fc" class="" opacity="1"></path><path d="M237.709 305.908h-22.252a4 4 0 0 0-3.999 3.999v19.223h30.249v-19.223a3.997 3.997 0 0 0-3.998-3.999z" style="" fill="#00ff1f" data-original="#aadaf2" class="" opacity="1"></path><path d="M211.459 350.645a4 4 0 0 0 3.999 3.999h22.252a4 4 0 0 0 3.999-3.999v-21.516H211.46v21.516z" style="" fill="#3bff00" data-original="#e8f8fc" class="" opacity="1"></path><path d="M296.542 230.726H274.29a4 4 0 0 0-3.999 3.999v19.222h30.249v-19.222a3.998 3.998 0 0 0-3.998-3.999z" style="" fill="#00ff1f" data-original="#aadaf2" class="" opacity="1"></path><path d="M270.292 275.463a4 4 0 0 0 3.999 3.999h22.252a4 4 0 0 0 3.999-3.999v-21.516h-30.249v21.516z" style="" fill="#3bff00" data-original="#e8f8fc" class="" opacity="1"></path><path d="M296.542 155.545H274.29a4 4 0 0 0-3.999 3.999v19.222h30.249v-19.222a3.998 3.998 0 0 0-3.998-3.999z" style="" fill="#00ff1f" data-original="#aadaf2" class="" opacity="1"></path><path d="M270.292 200.282a4 4 0 0 0 3.999 3.999h22.252a4 4 0 0 0 3.999-3.999v-21.516h-30.249v21.516z" style="" fill="#3bff00" data-original="#e8f8fc" class="" opacity="1"></path><path d="M296.542 305.908H274.29a4 4 0 0 0-3.999 3.999v19.223h30.249v-19.223a3.998 3.998 0 0 0-3.998-3.999z" style="" fill="#00ff1f" data-original="#aadaf2" class="" opacity="1"></path><path d="M270.292 350.645a4 4 0 0 0 3.999 3.999h22.252a4 4 0 0 0 3.999-3.999v-21.516h-30.249v21.516z" style="" fill="#3bff00" data-original="#e8f8fc" class="" opacity="1"></path><path d="M387.166 217.726h-22.252a4 4 0 0 0-3.999 3.999v19.222h30.249v-19.222a3.998 3.998 0 0 0-3.998-3.999z" style="" fill="#00ff1f" data-original="#aadaf2" class="" opacity="1"></path><path d="M360.916 262.463a4 4 0 0 0 3.999 3.999h22.252a4 4 0 0 0 3.999-3.999v-21.516h-30.249v21.516z" style="" fill="#3bff00" data-original="#e8f8fc" class="" opacity="1"></path><path d="M387.166 142.545h-22.252a4 4 0 0 0-3.999 3.999v19.222h30.249v-19.222a3.998 3.998 0 0 0-3.998-3.999z" style="" fill="#00ff1f" data-original="#aadaf2" class="" opacity="1"></path><path d="M360.916 187.282a4 4 0 0 0 3.999 3.999h22.252a4 4 0 0 0 3.999-3.999v-21.516h-30.249v21.516z" style="" fill="#3bff00" data-original="#e8f8fc" class="" opacity="1"></path><path d="M387.166 292.908h-22.252a4 4 0 0 0-3.999 3.999v19.223h30.249v-19.223a3.998 3.998 0 0 0-3.998-3.999z" style="" fill="#00ff1f" data-original="#aadaf2" class="" opacity="1"></path><path d="M360.916 337.645a4 4 0 0 0 3.999 3.999h22.252a4 4 0 0 0 3.999-3.999v-21.516h-30.249v21.516z" style="" fill="#3bff00" data-original="#e8f8fc" class="" opacity="1"></path><path d="M445.999 217.726h-22.252a4 4 0 0 0-3.999 3.999v19.222h30.249v-19.222a3.999 3.999 0 0 0-3.998-3.999z" style="" fill="#00ff1f" data-original="#aadaf2" class="" opacity="1"></path><path d="M419.749 262.463a4 4 0 0 0 3.999 3.999H446a4 4 0 0 0 3.999-3.999v-21.516H419.75v21.516z" style="" fill="#3bff00" data-original="#e8f8fc" class="" opacity="1"></path><path d="M445.999 142.545h-22.252a4 4 0 0 0-3.999 3.999v19.222h30.249v-19.222a3.998 3.998 0 0 0-3.998-3.999z" style="" fill="#00ff1f" data-original="#aadaf2" class="" opacity="1"></path><path d="M419.749 187.282a4 4 0 0 0 3.999 3.999H446a4 4 0 0 0 3.999-3.999v-21.516H419.75v21.516z" style="" fill="#3bff00" data-original="#e8f8fc" class="" opacity="1"></path><path d="M445.999 292.908h-22.252a4 4 0 0 0-3.999 3.999v19.223h30.249v-19.223a3.998 3.998 0 0 0-3.998-3.999z" style="" fill="#00ff1f" data-original="#aadaf2" class="" opacity="1"></path><path d="M419.749 337.645a4 4 0 0 0 3.999 3.999H446a4 4 0 0 0 3.999-3.999v-21.516H419.75v21.516z" style="" fill="#3bff00" data-original="#e8f8fc" class="" opacity="1"></path><path d="M387.166 368.09h-22.252a4 4 0 0 0-3.999 3.999v19.223h30.249v-19.223a3.998 3.998 0 0 0-3.998-3.999z" style="" fill="#00ff1f" data-original="#aadaf2" class="" opacity="1"></path><path d="M360.916 412.827a4 4 0 0 0 3.999 3.999h22.252a4 4 0 0 0 3.999-3.999v-21.516h-30.249v21.516z" style="" fill="#3bff00" data-original="#e8f8fc" class="" opacity="1"></path><path d="M445.999 368.09h-22.252a4 4 0 0 0-3.999 3.999v19.223h30.249v-19.223a3.998 3.998 0 0 0-3.998-3.999z" style="" fill="#00ff1f" data-original="#aadaf2" class="" opacity="1"></path><path d="M419.749 412.827a4 4 0 0 0 3.999 3.999H446a4 4 0 0 0 3.999-3.999v-21.516H419.75v21.516z" style="" fill="#3bff00" data-original="#e8f8fc" class="" opacity="1"></path><path d="M88.252 368.09H66.001a4 4 0 0 0-3.999 3.999v19.223h30.249v-19.223a4 4 0 0 0-3.999-3.999z" style="" fill="#00ff1f" data-original="#aadaf2" class="" opacity="1"></path><path d="M62.002 412.827a4 4 0 0 0 3.999 3.999h22.252a4 4 0 0 0 3.999-3.999v-21.516h-30.25v21.516z" style="" fill="#3bff00" data-original="#e8f8fc" class="" opacity="1"></path><path d="M147.085 368.09h-22.252a4 4 0 0 0-3.999 3.999v19.223h30.249v-19.223a3.998 3.998 0 0 0-3.998-3.999z" style="" fill="#00ff1f" data-original="#aadaf2" class="" opacity="1"></path><path d="M120.835 412.827a4 4 0 0 0 3.999 3.999h22.252a4 4 0 0 0 3.999-3.999v-21.516h-30.249v21.516z" style="" fill="#3bff00" data-original="#e8f8fc" class="" opacity="1"></path><path d="M88.252 217.726H66.001a4 4 0 0 0-3.999 3.999v19.222h30.249v-19.222a4 4 0 0 0-3.999-3.999z" style="" fill="#00ff1f" data-original="#aadaf2" class="" opacity="1"></path><path d="M62.002 262.463a4 4 0 0 0 3.999 3.999h22.252a4 4 0 0 0 3.999-3.999v-21.516h-30.25v21.516z" style="" fill="#3bff00" data-original="#e8f8fc" class="" opacity="1"></path><path d="M88.252 142.545H66.001a4 4 0 0 0-3.999 3.999v19.222h30.249v-19.222a4 4 0 0 0-3.999-3.999z" style="" fill="#00ff1f" data-original="#aadaf2" class="" opacity="1"></path><path d="M62.002 187.282a4 4 0 0 0 3.999 3.999h22.252a4 4 0 0 0 3.999-3.999v-21.516h-30.25v21.516z" style="" fill="#3bff00" data-original="#e8f8fc" class="" opacity="1"></path><path d="M88.252 292.908H66.001a4 4 0 0 0-3.999 3.999v19.223h30.249v-19.223a4 4 0 0 0-3.999-3.999z" style="" fill="#00ff1f" data-original="#aadaf2" class="" opacity="1"></path><path d="M62.002 337.645a4 4 0 0 0 3.999 3.999h22.252a4 4 0 0 0 3.999-3.999v-21.516h-30.25v21.516z" style="" fill="#3bff00" data-original="#e8f8fc" class="" opacity="1"></path><path d="M147.085 217.726h-22.252a4 4 0 0 0-3.999 3.999v19.222h30.249v-19.222a3.999 3.999 0 0 0-3.998-3.999z" style="" fill="#00ff1f" data-original="#aadaf2" class="" opacity="1"></path><path d="M120.835 262.463a4 4 0 0 0 3.999 3.999h22.252a4 4 0 0 0 3.999-3.999v-21.516h-30.249v21.516z" style="" fill="#3bff00" data-original="#e8f8fc" class="" opacity="1"></path><path d="M147.085 142.545h-22.252a4 4 0 0 0-3.999 3.999v19.222h30.249v-19.222a3.998 3.998 0 0 0-3.998-3.999z" style="" fill="#00ff1f" data-original="#aadaf2" class="" opacity="1"></path><path d="M120.835 187.282a4 4 0 0 0 3.999 3.999h22.252a4 4 0 0 0 3.999-3.999v-21.516h-30.249v21.516z" style="" fill="#3bff00" data-original="#e8f8fc" class="" opacity="1"></path><path d="M147.085 292.908h-22.252a4 4 0 0 0-3.999 3.999v19.223h30.249v-19.223a3.998 3.998 0 0 0-3.998-3.999z" style="" fill="#00ff1f" data-original="#aadaf2" class="" opacity="1"></path><path d="M120.835 337.645a4 4 0 0 0 3.999 3.999h22.252a4 4 0 0 0 3.999-3.999v-21.516h-30.249v21.516z" style="" fill="#3bff00" data-original="#e8f8fc" class="" opacity="1"></path><path d="M113.13 4a13.451 13.451 0 0 1 3.792 7.787l83.452 83.452c2.785 2.785 4.003 6.216 3.972 9.572h103.307c-.031-3.356 1.188-6.788 3.972-9.572l83.452-83.452a13.454 13.454 0 0 1 3.792-7.788H113.13z" style="" fill="#474979" data-original="#474979" class=""></path><path d="M113.13 4a13.451 13.451 0 0 1 3.792 7.787l83.452 83.452c2.785 2.785 4.003 6.216 3.972 9.572h103.307c-.031-3.356 1.188-6.788 3.972-9.572l83.452-83.452a13.454 13.454 0 0 1 3.792-7.788H113.13z" style="" fill="#474979" data-original="#474979" class=""></path><path d="M191.399 54.405c0-23.143 14.644-42.864 35.17-50.406H113.13a13.451 13.451 0 0 1 3.792 7.787l83.452 83.452c2.785 2.785 4.003 6.216 3.972 9.572h22.224c-20.527-7.54-35.171-27.262-35.171-50.405z" style="" fill="#383c6b" data-original="#383c6b" class=""></path><path d="M218.022 390.541h40.353v68.071h-40.353z" style="" fill="#474979" data-original="#474979" class=""></path><path d="M256 390.541h37.978v68.071H256z" style="" fill="#64679c" data-original="#64679c"></path><path d="M313.557 416.826c-7.089 0-12.889 5.8-12.889 12.889v27.384c0 7.089 5.8 12.889 12.889 12.889h79.671a246.37 246.37 0 0 0 56.617-53.162H313.557z" style="" fill="#87da8f" data-original="#87da8f"></path><path d="M367.334 457.099v-27.384c0-7.089 5.8-12.889 12.889-12.889h-66.667c-7.088 0-12.889 5.8-12.889 12.889v27.384c0 7.089 5.801 12.889 12.889 12.889h66.667c-7.088-.001-12.889-5.8-12.889-12.889z" style="" fill="#44bc4d" data-original="#44bc4d"></path><path d="M198.443 416.826H62.155a246.37 246.37 0 0 0 56.617 53.162h79.67c7.089 0 12.889-5.8 12.889-12.889v-27.384c.001-7.089-5.799-12.889-12.888-12.889z" style="" fill="#87da8f" data-original="#87da8f"></path><path d="M415.003 7.953c-5.272-5.272-13.82-5.272-19.092 0l-87.286 87.286c-8.504 8.504-2.481 23.046 9.546 23.046a13.5 13.5 0 0 0 9.546-3.954l77.74-77.74 77.74 77.74a13.498 13.498 0 0 0 9.546 3.954c12.027 0 18.05-14.541 9.546-23.046L415.003 7.953z" style="" fill="#00ff1f" data-original="#aadaf2" class="" opacity="1"></path><path d="M293.978 398.041h-75.955a7.5 7.5 0 0 1-7.5-7.5c0-4.143 3.357-7.5 7.5-7.5h75.955a7.5 7.5 0 0 1 0 15z" style="" fill="#383c6b" data-original="#383c6b" class=""></path><path d="M249.272 390.541a7.5 7.5 0 0 1 7.5-7.5h-38.75a7.5 7.5 0 0 0-7.5 7.5 7.5 7.5 0 0 0 7.5 7.5h38.75a7.5 7.5 0 0 1-7.5-7.5z" style="" fill="#2b3160" data-original="#2b3160"></path><path d="M142.627 484.228h70.821v-27H101.616a245.248 245.248 0 0 0 41.011 27zM298.553 457.228v27h70.821a245.338 245.338 0 0 0 41.012-27H298.553z" style="" fill="#44bc4d" data-original="#44bc4d"></path><path d="M354.469 470.844v-.232c0-7.392 5.992-13.384 13.384-13.384h-69.3v27h69.3c-7.392 0-13.384-5.992-13.384-13.384z" style="" fill="#36ad3c" data-original="#36ad3c" class=""></path><path d="M144.665 457.099v-27.384c0-7.089-5.8-12.889-12.889-12.889h66.667c7.088 0 12.889 5.8 12.889 12.889v27.384c0 7.089-5.801 12.889-12.889 12.889h-66.667c7.089-.001 12.889-5.8 12.889-12.889z" style="" fill="#44bc4d" data-original="#44bc4d"></path><path d="M157.531 470.844v-.232c0-7.392-5.992-13.384-13.384-13.384h69.3v27h-69.3c7.392 0 13.384-5.992 13.384-13.384z" style="" fill="#36ad3c" data-original="#36ad3c" class=""></path><path d="M211.459 484.228h89.082v-27h-89.082v27z" style="" fill="#3bff00" data-original="#e8f8fc" class="" opacity="1"></path><path d="M243.292 470.728c0-7.456 6.044-13.5 13.5-13.5h-45.333v27h45.333c-7.456 0-13.5-6.044-13.5-13.5z" style="" fill="#00ff1f" data-original="#aadaf2" class="" opacity="1"></path><path d="m447.693 40.643-32.69-32.69c-5.272-5.272-13.82-5.272-19.092 0l-87.286 87.286c-8.505 8.504-2.482 23.046 9.545 23.046h.001a13.5 13.5 0 0 0 9.546-3.954l77.74-77.74 22.524 22.524c-3.305-11.877 8.105-22.533 19.712-18.472z" style="" fill="#3bff00" data-original="#6cbce7" class="" opacity="1"></path><path d="M405.457 0c-7.456 0-13.5 6.044-13.5 13.5v28.276c0 7.456 6.044 13.5 13.5 13.5s13.5-6.044 13.5-13.5V13.5c0-7.456-6.044-13.5-13.5-13.5z" style="" fill="#3bff00" data-original="#e8f8fc" class="" opacity="1"></path><path d="M405.457 34.591c-7.456 0-13.5-6.044-13.5-13.5v20.685c0 7.456 6.044 13.5 13.5 13.5s13.5-6.044 13.5-13.5V21.091c0 7.456-6.044 13.5-13.5 13.5zM116.089 7.953c-5.272-5.272-13.82-5.272-19.092 0L9.711 95.239c-8.505 8.504-2.481 23.046 9.546 23.046a13.5 13.5 0 0 0 9.546-3.954l77.74-77.74 77.74 77.74a13.498 13.498 0 0 0 9.546 3.954c12.027 0 18.05-14.541 9.546-23.046L116.089 7.953z" style="" fill="#00ff1f" data-original="#aadaf2" class="" opacity="1"></path><path d="m148.779 40.643-32.69-32.69c-5.272-5.272-13.82-5.272-19.092 0L9.712 95.239c-8.505 8.504-2.482 23.046 9.545 23.046a13.5 13.5 0 0 0 9.546-3.954l77.74-77.74 22.524 22.524c-3.305-11.877 8.105-22.533 19.712-18.472z" style="" fill="#3bff00" data-original="#6cbce7" class="" opacity="1"></path><path d="M106.543 0c-7.456 0-13.5 6.044-13.5 13.5v28.276c0 7.456 6.044 13.5 13.5 13.5s13.5-6.044 13.5-13.5V13.5c0-7.456-6.044-13.5-13.5-13.5z" style="" fill="#3bff00" data-original="#e8f8fc" class="" opacity="1"></path><path d="M106.543 34.591c-7.456 0-13.5-6.044-13.5-13.5v20.685c0 7.456 6.044 13.5 13.5 13.5s13.5-6.044 13.5-13.5V21.091c0 7.456-6.044 13.5-13.5 13.5z" style="" fill="#00ff1f" data-original="#aadaf2" class="" opacity="1"></path></g></svg>