<svg xmlns="http://www.w3.org/2000/svg" version="1.1" xmlns:xlink="http://www.w3.org/1999/xlink" width="512"
     height="512" x="0" y="0" viewBox="0 0 64 64" style="enable-background:new 0 0 512 512" xml:space="preserve"
     class=""><g><g data-name="13-Building"><path fill="#fc6067" d="M32 2A24.027 24.027 0 0 0 8 26c0 18.294 22.45 35.098 23.406 35.804a1 1 0 0 0 1.188 0C33.55 61.098 56 44.294 56 26A24.027 24.027 0 0 0 32 2z" opacity="1" data-original="#fc6067" class=""></path><circle
        cx="32" cy="26" r="18" fill="#ffffff" opacity="1" data-original="#e7eaef" class=""></circle><rect width="10"
                                                                                                          height="17"
                                                                                                          x="21" y="20"
                                                                                                          fill="#000000"
                                                                                                          rx="1"
                                                                                                          opacity="1"
                                                                                                          data-original="#4e5460"
                                                                                                          class=""></rect><path
        fill="#000000" d="M42 15H30a1 1 0 0 0-1 1v21h13a1 1 0 0 0 1-1V16a1 1 0 0 0-1-1z" opacity="1"
        data-original="#565d69" class=""></path><path fill="#007eff" d="M38 30h-4a1 1 0 0 0-1 1v6h6v-6a1 1 0 0 0-1-1z"
                                                      opacity="1" data-original="#68b1fc" class=""></path><g
        fill="#e7eaef"><path d="M38 22a1 1 0 0 1-1-1v-1a1 1 0 0 1 2 0v1a1 1 0 0 1-1 1zM34 22a1 1 0 0 1-1-1v-1a1 1 0 0 1 2 0v1a1 1 0 0 1-1 1zM38 27a1 1 0 0 1-1-1v-1a1 1 0 0 1 2 0v1a1 1 0 0 1-1 1zM34 27a1 1 0 0 1-1-1v-1a1 1 0 0 1 2 0v1a1 1 0 0 1-1 1zM26 27a1 1 0 0 1-1-1v-1a1 1 0 0 1 2 0v1a1 1 0 0 1-1 1zM26 32a1 1 0 0 1-1-1v-1a1 1 0 0 1 2 0v1a1 1 0 0 1-1 1z" fill="#ffffff" opacity="1" data-original="#e7eaef" class=""></path></g></g></g></svg>